<svg width="16" height="16" viewBox="0 0 16 16" fill="none" xmlns="http://www.w3.org/2000/svg">
<path d="M10.5 9.49997C10.5 9.63258 10.4473 9.75976 10.3536 9.85352C10.2598 9.94729 10.1326 9.99997 10 9.99997H6C5.86739 9.99997 5.74021 9.94729 5.64645 9.85352C5.55268 9.75976 5.5 9.63258 5.5 9.49997C5.5 9.36736 5.55268 9.24018 5.64645 9.14642C5.74021 9.05265 5.86739 8.99997 6 8.99997H10C10.1326 8.99997 10.2598 9.05265 10.3536 9.14642C10.4473 9.24018 10.5 9.36736 10.5 9.49997ZM10 6.99997H6C5.86739 6.99997 5.74021 7.05265 5.64645 7.14642C5.55268 7.24019 5.5 7.36736 5.5 7.49997C5.5 7.63258 5.55268 7.75976 5.64645 7.85352C5.74021 7.94729 5.86739 7.99997 6 7.99997H10C10.1326 7.99997 10.2598 7.94729 10.3536 7.85352C10.4473 7.75976 10.5 7.63258 10.5 7.49997C10.5 7.36736 10.4473 7.24019 10.3536 7.14642C10.2598 7.05265 10.1326 6.99997 10 6.99997ZM13.5 2.99997V13.5C13.5 13.7652 13.3946 14.0195 13.2071 14.2071C13.0196 14.3946 12.7652 14.5 12.5 14.5H3.5C3.23478 14.5 2.98043 14.3946 2.79289 14.2071C2.60536 14.0195 2.5 13.7652 2.5 13.5V2.99997C2.5 2.73475 2.60536 2.4804 2.79289 2.29286C2.98043 2.10533 3.23478 1.99997 3.5 1.99997H5.76625C6.04719 1.68542 6.39139 1.43376 6.77633 1.26144C7.16127 1.08913 7.57826 1.00006 8 1.00006C8.42174 1.00006 8.83873 1.08913 9.22367 1.26144C9.6086 1.43376 9.95281 1.68542 10.2338 1.99997H12.5C12.7652 1.99997 13.0196 2.10533 13.2071 2.29286C13.3946 2.4804 13.5 2.73475 13.5 2.99997ZM6 3.99997H10C10 3.46954 9.78929 2.96083 9.41421 2.58576C9.03914 2.21068 8.53043 1.99997 8 1.99997C7.46957 1.99997 6.96086 2.21068 6.58579 2.58576C6.21071 2.96083 6 3.46954 6 3.99997ZM12.5 2.99997H10.8281C10.9419 3.32111 11 3.65929 11 3.99997V4.49997C11 4.63258 10.9473 4.75976 10.8536 4.85352C10.7598 4.94729 10.6326 4.99997 10.5 4.99997H5.5C5.36739 4.99997 5.24021 4.94729 5.14645 4.85352C5.05268 4.75976 5 4.63258 5 4.49997V3.99997C5.00001 3.65929 5.05814 3.32111 5.17188 2.99997H3.5V13.5H12.5V2.99997Z" fill="#1C1C1C"/>
</svg>
